<?xml version="1.0" encoding="utf-8"?>
<!-- Generator: Adobe Illustrator 23.0.5, SVG Export Plug-In . SVG Version: 6.00 Build 0)  -->
<svg version="1.1" id="bf250802-154c-4340-a718-5462dd95d90e"
	 xmlns="http://www.w3.org/2000/svg" xmlns:xlink="http://www.w3.org/1999/xlink" x="0px" y="0px" viewBox="0 0 694 712.6"
	 style="enable-background:new 0 0 694 712.6;" xml:space="preserve">
<style type="text/css">
	.st0{fill:#3F3D56;}
	.st1{fill:#FFFFFF;}
	.st2{fill:#E6E6E6;}
	.st3{fill:#6C63FF;}
	.st4{fill:#FADF47;}
	.st5{fill:#FADF47;stroke:#383838;stroke-miterlimit:10;}
	.st6{display:none;fill:#E6E6E6;}
	.st7{display:none;fill:#FEB8B8;}
	.st8{display:none;fill:#2F2E41;}
	.st9{display:none;fill:#E4E4E4;}
	.st10{display:none;fill:#3F3D56;}
	.st11{display:none;fill:#6C63FF;}
	.st12{fill:#7268E4;}
	.st13{fill:#CBCBCB;}
</style>
<path id="a7e0d23c-0c47-41f1-93b9-87dfccd4c0f5" class="st0" d="M499.7,168.9h-3.9v-107c0-34.2-27.7-61.9-61.9-61.9H207.3
	c-34.2,0-61.9,27.7-61.9,61.9v586.9c0,34.2,27.7,61.9,61.9,61.9h226.6c34.2,0,61.9-27.7,61.9-61.9V245h3.9L499.7,168.9z"/>
<path id="a1ad11fc-8226-4675-bbe0-e36020d9de96" class="st1" d="M483.1,57.8v595.2c0,25.9-21,46.9-46.9,47H204.9
	c-25.9,0-47-21-47-47V57.8c0-25.9,21-47,47-47H233c-4.6,11.4,0.8,24.5,12.3,29.1c2.7,1.1,5.5,1.6,8.4,1.6h131.9
	c12.3,0,22.3-10,22.3-22.4c0-2.9-0.6-5.7-1.6-8.4h30.1C462.1,10.8,483.1,31.8,483.1,57.8L483.1,57.8z"/>
<path id="a71e44ec-7616-4081-86af-b6db32cd39f3" class="st2" d="M425.8,400.6H220.3c-2.1,0-3.8-1.7-3.8-3.8v-51
	c0-2.1,1.7-3.8,3.8-3.8h205.5c2.1,0,3.8,1.7,3.8,3.8v51C429.6,398.9,427.9,400.6,425.8,400.6L425.8,400.6z M220.3,343.5
	c-1.3,0-2.3,1-2.3,2.3v51c0,1.3,1,2.3,2.3,2.3h205.5c1.3,0,2.3-1,2.3-2.3v-51c0-1.3-1-2.3-2.3-2.3H220.3z"/>
<path id="a3f57aef-fb20-4553-8f82-b751eb5ec42c" class="st2" d="M283.8,360.4c-1.5,0-2.7,1.2-2.7,2.7c0,1.5,1.2,2.7,2.7,2.7h125.6
	c1.5,0.1,2.7-1.1,2.8-2.6c0.1-1.5-1.1-2.7-2.6-2.8l0,0c0,0-0.1,0-0.1,0L283.8,360.4L283.8,360.4z"/>
<path id="a617e1da-1a45-4bf0-a146-8b20186fa5b6" class="st2" d="M283.8,376.3c-1.5,0-2.7,1.2-2.7,2.7c0,1.5,1.2,2.7,2.7,2.7h125.6
	c1.5,0.1,2.7-1.1,2.8-2.6c0.1-1.5-1.1-2.7-2.6-2.8c0,0-0.1,0-0.1,0L283.8,376.3L283.8,376.3z"/>
<path id="f83fafa3-5270-49ac-8952-eedc3d6c92ed" class="st2" d="M425.8,485.6H220.3c-2.1,0-3.8-1.7-3.8-3.8v-51
	c0-2.1,1.7-3.8,3.8-3.8h205.5c2.1,0,3.8,1.7,3.8,3.8v51C429.6,483.9,427.9,485.6,425.8,485.6z M220.3,428.5c-1.3,0-2.3,1-2.3,2.3v51
	c0,1.3,1,2.3,2.3,2.3h205.5c1.3,0,2.3-1,2.3-2.3v-51c0-1.3-1-2.3-2.3-2.3H220.3z"/>
<path id="b1e095e5-1d51-47f4-b1e9-85a21efab4ec" class="st2" d="M283.8,445.6c-1.5,0-2.7,1.2-2.7,2.7c0,1.5,1.2,2.7,2.7,2.7h125.6
	c1.5,0,2.7-1.2,2.6-2.7c0-1.4-1.1-2.6-2.6-2.6L283.8,445.6L283.8,445.6z"/>
<path id="e7ccabbb-2f45-40c9-adc9-a92013dc0f4d" class="st2" d="M283.8,461.6c-1.5,0-2.7,1.2-2.7,2.7c0,1.5,1.2,2.7,2.7,2.7h125.6
	c1.5,0,2.7-1.2,2.6-2.7c0-1.4-1.1-2.6-2.6-2.6L283.8,461.6L283.8,461.6z"/>
<path id="ec532991-8ec8-4eba-a86f-87c70c278f41" class="st2" d="M425.8,570.8H220.3c-2.1,0-3.8-1.7-3.8-3.8v-51
	c0-2.1,1.7-3.8,3.8-3.8h205.5c2.1,0,3.8,1.7,3.8,3.8v51C429.6,569.1,427.9,570.8,425.8,570.8L425.8,570.8z M220.3,513.8
	c-1.3,0-2.3,1-2.3,2.3v51c0,1.3,1,2.3,2.3,2.3h205.5c1.3,0,2.3-1,2.3-2.3v-51c0-1.3-1-2.3-2.3-2.3H220.3z"/>
<path id="a788f10e-f95b-4590-bad9-be702445c232" class="st2" d="M283.8,530.9c-1.5,0-2.7,1.2-2.7,2.7s1.2,2.7,2.7,2.7c0,0,0,0,0,0
	h125.6c1.5,0.1,2.7-1.1,2.8-2.6c0.1-1.5-1.1-2.7-2.6-2.8l0,0c0,0-0.1,0-0.1,0L283.8,530.9L283.8,530.9z"/>
<path id="f15a5014-9b42-4c0b-a546-80766b911601" class="st2" d="M283.8,546.9c-1.5,0-2.7,1.2-2.7,2.7c0,1.5,1.2,2.7,2.7,2.7h125.6
	c1.5,0.1,2.7-1.1,2.8-2.6c0.1-1.5-1.1-2.7-2.6-2.8l0,0c0,0-0.1,0-0.1,0L283.8,546.9L283.8,546.9z"/>
<g id="bf60e786-3805-43a5-8cdd-bbea060079bf">
	<circle id="a323e3dd-8f2c-40f7-a0c1-7a235f78e8b7" class="st3" cx="245.9" cy="371" r="16"/>
	<path id="b21d221e-9b86-4bff-9dca-a61a27263db1" class="st2" d="M238.3,368c-0.2,0-0.3,1.2-0.3,2.7s0.1,2.7,0.3,2.7H254
		c0.2,0,0.3-1.1,0.3-2.6c0.1-0.9,0-1.8-0.3-2.7L238.3,368L238.3,368z"/>
</g>
<g id="b51141dd-8175-4f5a-b697-41b89601b37f">
	<circle id="e363222e-d569-47a6-8bf5-edbaac636a07" class="st3" cx="245.9" cy="456.3" r="16"/>
	<path id="bf4b9d9b-b2cd-48cd-bc0b-2e6b007ef33d" class="st2" d="M238.3,453.3c-0.2,0-0.3,1.2-0.3,2.7s0.1,2.7,0.3,2.7H254
		c0.2,0,0.3-1.1,0.3-2.6c0.1-0.9,0-1.8-0.3-2.7L238.3,453.3L238.3,453.3z"/>
</g>
<g id="b35aa588-fd9e-4429-8570-fee6b5da93cc">
	<circle id="b896a996-d737-41ee-9642-d5eaf8a9fd6b" class="st4" cx="245.9" cy="541.5" r="16"/>
	<path id="f0c90521-3626-484d-9767-39f7327e6a31" class="st5" d="M238.3,538.5c-0.2,0-0.3,1.2-0.3,2.7c0,1.5,0.1,2.7,0.3,2.7l15.7,0
		c0.2,0,0.3-1.1,0.3-2.6c0.1-0.9,0-1.8-0.3-2.7L238.3,538.5L238.3,538.5z"/>
	<g id="b35aa588-fd9e-4429-8570-fee6b5da93cc_1_">
		<circle id="b896a996-d737-41ee-9642-d5eaf8a9fd6b_1_" class="st4" cx="246.1" cy="456.3" r="16"/>
		<path id="f0c90521-3626-484d-9767-39f7327e6a31_1_" class="st5" d="M238.3,453.7c-0.2,0-0.3,1.2-0.3,2.7c0,1.5,0.1,2.7,0.3,2.7
			l15.7,0c0.2,0,0.3-1.1,0.3-2.6c0.1-0.9,0-1.8-0.3-2.7L238.3,453.7L238.3,453.7z"/>
	</g>
	<path id="b896a996-d737-41ee-9642-d5eaf8a9fd6b_2_" class="st4" d="M230.2,371.3c0-8.8,7.2-16,16-16s16,7.2,16,16s-7.2,16-16,16
		S230.2,380.1,230.2,371.3"/>
	<path id="f0c90521-3626-484d-9767-39f7327e6a31_2_" class="st5" d="M238.5,368.3c-0.2,0-0.3,1.2-0.3,2.7c0,1.5,0.1,2.7,0.3,2.7
		l15.7,0c0.2,0,0.3-1.1,0.3-2.6c0.1-0.9,0-1.8-0.3-2.7L238.5,368.3L238.5,368.3z"/>
</g>
<path class="st6" d="M372.2,256.7c-1.7,0-3.2-0.9-4-2.4c-6.5-12.7-17.8-22.2-31.4-26.4c-2.8-0.8-5.6-1.5-8.4-1.9l-0.6-0.1l29.9-93.5
	l0.5,0c58.1,15.8,91.4,62.4,100.2,76.3c1.3,2.1,0.7,4.9-1.4,6.2c-0.1,0.1-0.3,0.2-0.4,0.2l-82.4,41.2
	C373.6,256.5,372.9,256.7,372.2,256.7z"/>
<path id="e0f3bbc9-2b9f-408e-80ac-e1d5d48fdbc4" class="st7" d="M551.6,456c1.2-5,6.2-8.1,11.2-6.9c0.5,0.1,1.1,0.3,1.6,0.5
	l22.3-24.3l4.2,16.6L569,462.5c-2.4,4.6-8,6.4-12.6,4C552.6,464.5,550.6,460.2,551.6,456L551.6,456z"/>
<path id="b7278a0b-1b02-42c5-a26a-5568eba21726" class="st7" d="M599.5,698.3h-13.6l-6.5-52.5h20.1L599.5,698.3z"/>
<path id="ae5e3f59-c07c-4936-a848-b4ed4a22f493" class="st8" d="M603,693.9h-26.8c-9.4,0-17.1,7.7-17.1,17.1v0.6H603L603,693.9z"/>
<path id="e2dcac65-80ca-45a3-9c58-68329f82aa19" class="st7" d="M677.7,684.8l-12.7,4.8l-24.7-46.8l18.8-7.1L677.7,684.8z"/>
<path id="e33efd2e-5dad-4e18-8ce5-ea4b13e613d2" class="st8" d="M679.3,679.5l-25.1,9.5l0,0c-8.8,3.3-13.3,13.2-9.9,22l0.2,0.5
	l41-15.6L679.3,679.5z"/>
<path id="aea1be6b-88fd-4404-a4b2-fdb70dea932e" class="st8" d="M632.9,523.6l11.3,60.7c0,0,30.6,85.4,28.5,87.6
	c-2.1,2.1-31.7,9.7-30.1,4.8c1.6-4.8-35.5-77.4-35.5-77.4L632.9,523.6z"/>
<path id="a45d4c0e-5c31-49a4-b00c-14ea50dd8cbe" class="st9" d="M587.1,413.3c0,0-22.8,29.8-19.8,31.4s14.5,10.2,14.5,10.2
	l11.8-32.3L587.1,413.3z"/>
<path id="ababf4ae-7dbc-4717-bb50-ecd0b5fac405" class="st8" d="M580.7,443.4c0,0-3.8,27.9-2.1,33.8c1.6,5.9,0.5,173.5-0.5,176.2
	s-4.3,11.8-2.7,16.1s23.6,15,26.9,11.3s26.9-140.8,26.9-140.8s33.3-82.7,25.8-90.8C647.4,441.2,580.7,443.4,580.7,443.4z"/>
<circle id="a4a0a325-f198-46ef-8204-e1264a7da486" class="st7" cx="629.1" cy="237.5" r="26.3"/>
<path id="f1bcc5ff-8c37-42ba-ac71-fb7b653723a6" class="st9" d="M601.6,297c0.7-4.3,2.8-8.2,6-11l4.8-14.7h28.2l7.9,12.3
	c8.5,3.7,14.8,9.5,15,16.3c1.3,4.5-4.3,148.8-5.9,154.2c-0.5,1.6-6.9,2.4-15.9,2.8c-8.3,0.3-18.8,0.3-28.8,0.1
	c-16.6-0.4-32.2-1.3-34.8-1.8C572.1,454.1,601,300.4,601.6,297z"/>
<path id="f2ae932d-f3ee-421e-b804-f39bdd3d1485" class="st7" d="M626.5,488.3c4.3-2.8,5.6-8.5,2.8-12.8c-0.3-0.5-0.6-0.9-1-1.3
	l15.6-29.1l-17.1,1.6l-12.2,27.4c-3.5,3.7-3.4,9.6,0.3,13.2C618.1,490.2,622.9,490.7,626.5,488.3L626.5,488.3z"/>
<path id="a13bc27c-3d22-450d-9b6a-4857ac9e22b6" class="st9" d="M629.1,281.1c0,0-24.7,10.2-15.6,36s19.3,56.4,19.3,56.4
	s-12.9,69.3-12.9,72s-8.1,17.2-4.8,19.9s24.7,8.1,25.3,5.4c1.6-6.2,3.6-12.3,5.9-18.3c1.1-2.1,26.3-69.3,23.1-75.2
	c-2.4-4.3-4.5-44.2-5.4-64.9c-0.4-12-7.2-23-17.8-28.7C641.2,281,635.4,279.5,629.1,281.1z"/>
<path id="a3aad1c3-1778-4515-92de-8de9e018032c" class="st8" d="M639.2,249.2c-2-0.9-4.3-1.1-6.5-1.7c-7.7-2.1-12.9-9.7-11.3-16.6
	c0.3-0.9,0.4-1.8,0.4-2.7c-0.3-2-2.7-3.4-5-3.8c-2.3-0.5-4.7-0.4-6.9-1.2c-3.2-1.1-5.6-4-6.1-7.4c-0.3-3.2,0.5-6.5,2.3-9.2l0.8,2.1
	c1.2-0.9,2.2-2.1,2.7-3.5c1.8,0.2,3.4,1.3,4.3,3c1.3,0.7,1.5-2.1,3-2.5c0.6-0.1,1.3,0.1,1.8,0.4c3,1.2,6.4,0.2,9.6-0.5
	c5.5-1.2,11.2-1.2,16.8,0c3.7,0.8,7.3,2.1,9.9,4.5c2,2,3.6,4.3,4.6,7c2.8,6.2,4.7,12.9,3.7,19.5c-0.8,5.5-3.5,10.7-7.4,14.6
	c-2.1,2.1-9,9.6-12.8,8.3C638.4,257.8,644.8,251.8,639.2,249.2z"/>
<circle class="st10" cx="322" cy="266.5" r="8"/>
<path class="st11" d="M268.3,256.6c-0.7,0-1.5-0.2-2.1-0.5l-82-43.2c-2.2-1.2-3-3.9-1.9-6.1c0-0.1,0.1-0.2,0.1-0.2
	c10.9-17.5,24.8-33.1,41-46c28.3-22.4,60.5-33.7,95.7-33.5c13.2,0.1,26.3,1.8,39.1,5.3l0.5,0.1L328.8,226l-0.4-0.1
	c-2.7-0.4-5.4-0.6-8.1-0.7c-30.5-0.9-43.6,19.9-47.9,28.8c-0.5,1.1-1.5,1.9-2.6,2.3C269.3,256.5,268.8,256.6,268.3,256.6z"/>
<path class="st10" d="M358.1,132.8l-21.2,94.6c-2.8-0.8-5.6-1.5-8.5-1.9L358.1,132.8L358.1,132.8z"/>
<path class="st11" d="M221.6,274.4h-30.9c-1.7,0-3.2-1.4-3.2-3.2v-102c0-1.7,1.4-3.2,3.2-3.2h30.9c1.7,0,3.2,1.4,3.2,3.2v102
	C224.8,273,223.4,274.4,221.6,274.4z"/>
<path class="st11" d="M278.1,274.4h-30.9c-1.7,0-3.2-1.4-3.2-3.2V128.8c0-1.7,1.4-3.2,3.2-3.2h30.9c1.7,0,3.2,1.4,3.2,3.2v142.4
	C281.2,273,279.8,274.4,278.1,274.4z"/>
<path class="st11" d="M334.5,274.4h-30.9c-1.7,0-3.2-1.4-3.2-3.2v-102c0-1.7,1.4-3.2,3.2-3.2h30.9c1.7,0,3.2,1.4,3.2,3.2v102
	C337.7,273,336.2,274.4,334.5,274.4z"/>
<path class="st11" d="M390.9,274.4H360c-1.7,0-3.1-1.3-3.2-3V112.7c0-1.7,1.5-3.1,3.2-3h30.9c1.7,0,3.1,1.3,3.2,3v158.7
	C394.1,273.1,392.6,274.4,390.9,274.4z"/>
<path class="st11" d="M447.4,274.4h-30.9c-1.7,0-3.2-1.4-3.2-3.2V84.1c0-1.7,1.4-3.2,3.2-3.2h30.9c1.7,0,3.2,1.4,3.2,3.2v187.1
	C450.5,273,449.1,274.4,447.4,274.4z"/>
<polygon class="st10" points="205.8,147.3 205.2,146.5 262.6,103.8 318.8,145.8 375.9,83.9 376,83.8 431.3,61 431.7,61.9 
	376.5,84.7 319,147.1 262.6,105.1 "/>
<path class="st12" d="M220.8,271.5h-31.2c-1.8,0-3.2-1.4-3.2-3.2V165.7c0-1.8,1.4-3.2,3.2-3.2h31.2c1.8,0,3.2,1.4,3.2,3.2v102.7
	C223.9,270.1,222.5,271.5,220.8,271.5z"/>
<path class="st12" d="M277.6,271.5h-31.2c-1.8,0-3.2-1.4-3.2-3.2V124.9c0-1.8,1.4-3.2,3.2-3.2h31.2c1.8,0,3.2,1.4,3.2,3.2v143.4
	C280.8,270.1,279.3,271.5,277.6,271.5z"/>
<path class="st12" d="M334.4,271.5h-31.2c-1.8,0-3.2-1.4-3.2-3.2V165.7c0-1.8,1.4-3.2,3.2-3.2h31.2c1.8,0,3.2,1.4,3.2,3.2v102.7
	C337.6,270.1,336.2,271.5,334.4,271.5z"/>
<path class="st12" d="M391.2,271.5h-31.2c-1.7,0-3.1-1.3-3.2-3V108.7c0-1.7,1.5-3.1,3.2-3h31.2c1.7,0,3.1,1.3,3.2,3v159.8
	C394.3,270.2,392.9,271.5,391.2,271.5z"/>
<path class="st12" d="M448,271.5h-31.2c-1.8,0-3.2-1.4-3.2-3.2V79.9c0-1.8,1.4-3.2,3.2-3.2H448c1.8,0,3.2,1.4,3.2,3.2v188.4
	C451.2,270.1,449.8,271.5,448,271.5z"/>
<circle class="st0" cx="205.2" cy="143.2" r="6.4"/>
<circle class="st0" cx="262" cy="101.4" r="6.4"/>
<circle class="st0" cx="318.8" cy="143.2" r="6.4"/>
<circle class="st0" cx="375.6" cy="81" r="6.4"/>
<circle class="st0" cx="432.4" cy="57.4" r="6.4"/>
<path class="st13" d="M470.4,273.9h-293c-0.2,0-0.4-0.2-0.4-0.5c0-0.3,0.2-0.5,0.4-0.5h293c0.2,0,0.4,0.2,0.4,0.5
	C470.8,273.7,470.6,273.9,470.4,273.9z"/>
<polygon class="st0" points="204.8,143.6 204.2,142.8 262,99.8 318.6,142 376,79.7 376.1,79.7 431.9,56.7 432.2,57.6 376.6,80.5 
	318.8,143.4 262,101 "/>
</svg>
